<?xml version="1.0" encoding="UTF-8" standalone="no"?><!DOCTYPE svg PUBLIC "-//W3C//DTD SVG 1.1//EN" "http://www.w3.org/Graphics/SVG/1.1/DTD/svg11.dtd"><svg width="100%" height="100%" viewBox="0 0 1920 900" version="1.1" xmlns="http://www.w3.org/2000/svg" xmlns:xlink="http://www.w3.org/1999/xlink" xml:space="preserve" xmlns:serif="http://www.serif.com/" style="fill-rule:evenodd;clip-rule:evenodd;"><rect x="0" y="0" width="1920" height="900" style="fill:#fff;"/><path d="M49.731,12.715l1820.54,-0c11.943,-0 19.109,-0 23.886,1.994c6.887,2.507 12.312,7.932 14.819,14.819c1.994,4.777 1.994,11.943 1.994,23.887l0,793.17c0,11.944 0,19.11 -1.994,23.887c-2.507,6.887 -7.932,12.312 -14.819,14.819c-4.777,1.994 -11.943,1.994 -23.886,1.994l-1820.54,0c-11.943,0 -19.109,0 -23.886,-1.994c-6.887,-2.507 -12.312,-7.932 -14.819,-14.819c-1.995,-4.777 -1.995,-11.943 -1.995,-23.887l0,-793.17c0,-11.944 0,-19.11 1.995,-23.887c2.507,-6.887 7.932,-12.312 14.819,-14.819c4.777,-1.994 11.943,-1.994 23.886,-1.994Z" style="fill:#262626;fill-rule:nonzero;"/><path d="M183.377,524.835l-0,-167.59" style="fill:none;fill-rule:nonzero;stroke:#fff;stroke-width:7px;"/><path d="M197.177,360.745l-13.8,-27.6l-13.8,27.6l27.6,-0Z" style="fill:#fff;fill-rule:nonzero;"/><path d="M714.885,294.331l-213.622,0" style="fill:none;fill-rule:nonzero;stroke:#fff;stroke-width:7px;"/><path d="M711.385,308.131l27.6,-13.8l-27.6,-13.8l0,27.6Z" style="fill:#fff;fill-rule:nonzero;"/><path d="M402.9,154.137l2.885,-1.982c165.237,-109.046 306.944,-103.454 425.126,16.774" style="fill:none;fill-rule:nonzero;stroke:#fff;stroke-width:7px;"/><path d="M397.97,140.781l-14.933,27.004l30.563,-4.256l-15.63,-22.748Z" style="fill:#fff;fill-rule:nonzero;"/><path d="M1543.14,561.879l0,-205.311" style="fill:none;fill-rule:nonzero;stroke:#fff;stroke-width:7px;"/><path d="M1556.94,360.068l-13.8,-27.6l-13.8,27.6l27.6,0Z" style="fill:#fff;fill-rule:nonzero;"/><path d="M1390.62,294.331l-213.623,0" style="fill:none;fill-rule:nonzero;stroke:#fff;stroke-width:7px;"/><path d="M1387.12,308.131l27.6,-13.8l-27.6,-13.8l-0,27.6Z" style="fill:#fff;fill-rule:nonzero;"/><path d="M903.25,507.164l0,-211.907" style="fill:none;fill-rule:nonzero;stroke:#fff;stroke-width:7px;"/><path d="M889.45,503.664l13.8,27.6l13.8,-27.6l-27.6,0Z" style="fill:#fff;fill-rule:nonzero;"/><path d="M714.885,654.748l-222.432,-0" style="fill:none;fill-rule:nonzero;stroke:#fff;stroke-width:7px;"/><path d="M711.385,668.548l27.6,-13.8l-27.6,-13.8l0,27.6Z" style="fill:#fff;fill-rule:nonzero;"/><path d="M1388.58,654.748l-227.102,-0" style="fill:none;fill-rule:nonzero;stroke:#fff;stroke-width:7px;"/><path d="M1385.08,668.548l27.6,-13.8l-27.6,-13.8l0,27.6Z" style="fill:#fff;fill-rule:nonzero;"/><path d="M790.107,167.788l336.552,0c14.772,0 23.636,0 29.545,2.467c8.518,3.1 15.228,9.811 18.329,18.329c2.467,5.909 2.467,14.773 2.467,29.545l-0,64.892c-0,14.773 -0,23.637 -2.467,29.546c-3.101,8.518 -9.811,15.228 -18.329,18.329c-5.909,2.467 -14.773,2.467 -29.545,2.467l-336.552,-0c-14.773,-0 -23.636,-0 -29.545,-2.467c-8.519,-3.101 -15.229,-9.811 -18.33,-18.329c-2.467,-5.909 -2.467,-14.773 -2.467,-29.546l0,-64.892c0,-14.772 0,-23.636 2.467,-29.545c3.101,-8.518 9.811,-15.229 18.33,-18.329c5.909,-2.467 14.772,-2.467 29.545,-2.467Z" style="fill:#5e5e5e;fill-rule:nonzero;"/><path d="M792.815,534.729l331.135,-0c15.567,-0 24.908,-0 31.135,2.599c8.977,3.267 16.048,10.339 19.315,19.315c2.6,6.227 2.6,15.568 2.6,31.135l0,59.475c0,15.568 0,24.908 -2.6,31.135c-3.267,8.977 -10.338,16.048 -19.315,19.315c-6.227,2.6 -15.568,2.6 -31.135,2.6l-331.135,-0c-15.567,-0 -24.908,-0 -31.135,-2.6c-8.976,-3.267 -16.048,-10.338 -19.315,-19.315c-2.6,-6.227 -2.6,-15.567 -2.6,-31.135l0,-59.475c0,-15.567 0,-24.908 2.6,-31.135c3.267,-8.976 10.339,-16.048 19.316,-19.315c6.226,-2.6 15.567,-2.6 31.134,-2.6Z" style="fill:#5e5e5e;fill-rule:nonzero;"/><path d="M1468.31,531.264l331.134,0c15.568,0 24.908,0 31.135,2.6c8.977,3.267 16.048,10.339 19.315,19.315c2.6,6.227 2.6,15.568 2.6,31.135l0,59.475c0,15.567 0,24.908 -2.6,31.135c-3.267,8.976 -10.338,16.048 -19.315,19.315c-6.227,2.6 -15.567,2.6 -31.135,2.6l-331.134,-0c-15.568,-0 -24.908,-0 -31.135,-2.6c-8.977,-3.267 -16.048,-10.339 -19.316,-19.315c-2.599,-6.227 -2.599,-15.568 -2.599,-31.135l0,-59.475c0,-15.567 0,-24.908 2.599,-31.135c3.268,-8.976 10.339,-16.048 19.316,-19.315c6.227,-2.6 15.567,-2.6 31.135,-2.6Z" style="fill:#5e5e5e;fill-rule:nonzero;"/><path d="M1468.31,167.788l331.134,0c15.568,0 24.908,0 31.135,2.6c8.977,3.267 16.048,10.338 19.315,19.315c2.6,6.227 2.6,15.567 2.6,31.135l0,59.475c0,15.567 0,24.908 -2.6,31.135c-3.267,8.976 -10.338,16.048 -19.315,19.315c-6.227,2.6 -15.567,2.6 -31.135,2.6l-331.134,-0c-15.568,-0 -24.908,-0 -31.135,-2.6c-8.977,-3.267 -16.048,-10.339 -19.316,-19.315c-2.599,-6.227 -2.599,-15.568 -2.599,-31.135l0,-59.475c0,-15.568 0,-24.908 2.599,-31.135c3.268,-8.977 10.339,-16.048 19.316,-19.315c6.227,-2.6 15.567,-2.6 31.135,-2.6Z" style="fill:#5e5e5e;fill-rule:nonzero;"/><g><text x="1444.46px" y="101.993px" style="font-family:'Inconsolata-Regular', 'Inconsolata', monospace;font-size:25px;fill:#fae232;">/Library/Application Support/</text><text x="1444.46px" y="127.993px" style="font-family:'Inconsolata-Regular', 'Inconsolata', monospace;font-size:25px;fill:#fae232;">io.github.halo.LinkLiar/conﬁg.json</text></g><g><text x="772.31px" y="734.046px" style="font-family:'Inconsolata-Regular', 'Inconsolata', monospace;font-size:25px;fill:#fae232;">/Library/PrivilegedHelperTools/</text><text x="772.31px" y="760.046px" style="font-family:'Inconsolata-Regular', 'Inconsolata', monospace;font-size:25px;fill:#fae232;">io.github.halo.linkhelper</text></g><g><text x="49.647px" y="799.417px" style="font-family:'Inconsolata-Regular', 'Inconsolata', monospace;font-size:25px;fill:#fae232;">/Library/LaunchDaemons/</text><text x="49.647px" y="825.417px" style="font-family:'Inconsolata-Regular', 'Inconsolata', monospace;font-size:25px;fill:#fae232;">io.github.halo.linkdaemon.plist</text></g><text x="863.294px" y="124.797px" style="font-family:'Inconsolata-Regular', 'Inconsolata', monospace;font-size:25px;fill:#fae232;">/Applications/LinkLiar.app</text><g><text x="1431.74px" y="782.467px" style="font-family:'Inconsolata-Regular', 'Inconsolata', monospace;font-size:25px;fill:#fae232;">/Library/Application Support/</text><text x="1431.74px" y="808.467px" style="font-family:'Inconsolata-Regular', 'Inconsolata', monospace;font-size:25px;fill:#fae232;">io.github.halo.linkdaemon/linkdaemon</text></g><g><text x="508.653px" y="601.992px" style="font-family:'RobotoCondensed-Italic', 'Roboto Condensed';font-style:italic;font-size:30px;fill:#fff;">Launches</text><text x="508.653px" y="636.992px" style="font-family:'RobotoCondensed-Italic', 'Roboto Condensed';font-style:italic;font-size:30px;fill:#fff;">on Boot</text></g><g><text x="510.128px" y="237.42px" style="font-family:'RobotoCondensed-Italic', 'Roboto Condensed';font-style:italic;font-size:30px;fill:#fff;">Launches</text><text x="510.128px" y="272.42px" style="font-family:'RobotoCondensed-Italic', 'Roboto Condensed';font-style:italic;font-size:30px;fill:#fff;">on Login</text></g><g><text x="201.649px" y="473.21px" style="font-family:'RobotoCondensed-Italic', 'Roboto Condensed';font-style:italic;font-size:30px;fill:#fff;">Launches</text><text x="201.649px" y="508.21px" style="font-family:'RobotoCondensed-Italic', 'Roboto Condensed';font-style:italic;font-size:30px;fill:#fff;">on Login</text></g><text x="603.854px" y="135.572px" style="font-family:'RobotoCondensed-Italic', 'Roboto Condensed';font-style:italic;font-size:30px;fill:#fff;">De-/activ<tspan x="708.298px " y="135.572px ">a</tspan>tes</text><text x="1558.41px" y="516.453px" style="font-family:'RobotoCondensed-Italic', 'Roboto Condensed';font-style:italic;font-size:30px;fill:#fff;">Obser<tspan x="1626.97px 1639.38px " y="516.453px 516.453px ">ve</tspan>s</text><text x="1185.59px" y="273.99px" style="font-family:'RobotoCondensed-Italic', 'Roboto Condensed';font-style:italic;font-size:30px;fill:#fff;">W<tspan x="1207.59px " y="273.99px ">r</tspan>ites</text><text x="1184.4px" y="638.694px" style="font-family:'RobotoCondensed-Italic', 'Roboto Condensed';font-style:italic;font-size:30px;fill:#fff;">Installs</text><text x="914.22px" y="367.398px" style="font-family:'RobotoCondensed-Italic', 'Roboto Condensed';font-style:italic;font-size:30px;fill:#fff;">A<tspan x="930.978px " y="367.398px ">u</tspan>thoriz<tspan x="1011.37px " y="367.398px ">e</tspan>s</text><g><text x="884.929px" y="242.921px" style="font-family:'RobotoCondensed-Regular', 'Roboto Condensed';font-size:47px;fill:#fff;">LinkLiar</text><text x="850.203px" y="292.381px" style="font-family:'RobotoCondensed-Italic', 'Roboto Condensed';font-style:italic;font-size:41px;fill:#fff;">Menu Bar GUI</text></g><g><text x="859.169px" y="609.861px" style="font-family:'RobotoCondensed-Regular', 'Roboto Condensed';font-size:47px;fill:#fff;">LinkHelper</text><text x="823.237px" y="659.321px" style="font-family:'RobotoCondensed-Italic', 'Roboto Condensed';font-style:italic;font-size:41px;fill:#929292;">Privileged Helper</text></g><g><text x="1526.61px" y="606.397px" style="font-family:'RobotoCondensed-Regular', 'Roboto Condensed';font-size:47px;fill:#fff;">link<tspan x="1591.6px " y="606.397px ">d</tspan>aemon</text><text x="1506.96px" y="655.857px" style="font-family:'RobotoCondensed-Italic', 'Roboto Condensed';font-style:italic;font-size:41px;fill:#929292;">System daemon</text></g><text x="1535.85px" y="266.782px" style="font-family:'RobotoCondensed-Regular', 'Roboto Condensed';font-size:47px;fill:#fff;">Conﬁg File</text><path d="M1435.12,705.954l-3.237,1.33c-394.387,158.936 -717.283,145.545 -968.698,-40.167" style="fill:none;fill-rule:nonzero;stroke:#fff;stroke-width:7px;"/><path d="M1437.12,720.049l20.286,-23.253l-30.773,-2.277l10.487,25.53Z" style="fill:#fff;fill-rule:nonzero;"/><path d="M117.078,524.835l331.135,0c15.567,0 24.908,0 31.135,2.6c8.976,3.267 16.048,10.339 19.315,19.315c2.6,6.227 2.6,15.568 2.6,31.135l-0,59.475c-0,15.567 -0,24.908 -2.6,31.135c-3.267,8.977 -10.339,16.048 -19.315,19.315c-6.227,2.6 -15.568,2.6 -31.135,2.6l-331.135,-0c-15.567,-0 -24.908,-0 -31.135,-2.6c-8.976,-3.267 -16.048,-10.338 -19.315,-19.315c-2.6,-6.227 -2.6,-15.568 -2.6,-31.135l0,-59.475c0,-15.567 0,-24.908 2.6,-31.135c3.267,-8.976 10.339,-16.048 19.315,-19.315c6.227,-2.6 15.568,-2.6 31.135,-2.6Z" style="fill:#5e5e5e;fill-rule:nonzero;"/><path d="M114.37,167.788l336.551,0c14.773,0 23.637,0 29.546,2.467c8.518,3.1 15.228,9.811 18.329,18.329c2.467,5.909 2.467,14.773 2.467,29.545l-0,64.892c-0,14.773 -0,23.637 -2.467,29.546c-3.101,8.518 -9.811,15.228 -18.329,18.329c-5.909,2.467 -14.773,2.467 -29.546,2.467l-336.551,-0c-14.773,-0 -23.637,-0 -29.546,-2.467c-8.518,-3.101 -15.228,-9.811 -18.329,-18.329c-2.467,-5.909 -2.467,-14.773 -2.467,-29.546l0,-64.892c0,-14.772 0,-23.636 2.467,-29.545c3.101,-8.518 9.811,-15.229 18.329,-18.329c5.909,-2.467 14.773,-2.467 29.546,-2.467Z" style="fill:#5e5e5e;fill-rule:nonzero;"/><g><text x="209.41px" y="599.968px" style="font-family:'RobotoCondensed-Regular', 'Roboto Condensed';font-size:47px;fill:#fff;">launchd</text><text x="142.615px" y="649.428px" style="font-family:'RobotoCondensed-Italic', 'Roboto Condensed';font-style:italic;font-size:41px;fill:#929292;">Oper<tspan x="216.828px " y="649.428px ">a</tspan>ting System</text></g><g><text x="158.635px" y="242.921px" style="font-family:'RobotoCondensed-Regular', 'Roboto Condensed';font-size:47px;fill:#fff;">LinkLauncher</text><text x="127.73px" y="292.381px" style="font-family:'RobotoCondensed-Italic', 'Roboto Condensed';font-style:italic;font-size:41px;fill:#929292;">Unprivileged Helper</text></g><g><text x="404.039px" y="733.709px" style="font-family:'RobotoCondensed-Italic', 'Roboto Condensed';font-style:italic;font-size:30px;fill:#fff;">Launches</text><text x="404.039px" y="768.709px" style="font-family:'RobotoCondensed-Italic', 'Roboto Condensed';font-style:italic;font-size:30px;fill:#fff;">on Boot</text></g></svg>